<?xml version="1.0" ?><svg id="Layer_1" style="enable-background:new 0 0 512 512;" version="1.1" viewBox="0 0 512 512" xml:space="preserve" xmlns="http://www.w3.org/2000/svg" xmlns:xlink="http://www.w3.org/1999/xlink"><ellipse cx="256" cy="256" id="XMLID_731_" rx="1.5" ry="0"/><g id="XMLID_578_"><path d="M401.4,6H110.6c-17.1,0-31,13.9-31,31v438c0,17.1,13.9,31,31,31h290.8c17.1,0,31-13.9,31-31V37   C432.4,19.9,418.5,6,401.4,6z M422.6,475c0,11.7-9.5,21.2-21.2,21.2H110.6c-11.7,0-21.2-9.5-21.2-21.2V37   c0-11.7,9.5-21.2,21.2-21.2h290.8c11.7,0,21.2,9.5,21.2,21.2V475z" id="XMLID_585_"/><path d="M182.2,256.4h147.6c5.2,0,9.4-4.2,9.4-9.4c0-29.1-14.8-55.5-39.6-70.8c-4.3-2.6-10-1.3-12.7,2.9   c-6.9,10.5-18.4,16.8-30.9,16.8c-12.5,0-24-6.3-30.9-16.8c-2.8-4.2-8.5-5.6-12.7-2.9c-24.8,15.3-39.6,41.8-39.6,70.9   C172.8,252.2,177,256.4,182.2,256.4z M217.1,184.8c8.7,13.1,23.2,20.9,38.9,20.9c15.7,0,30.2-7.8,38.9-20.9   c21.5,13.4,34.3,36.5,34.5,61.8H182.6C182.8,221.3,195.6,198.3,217.1,184.8z" id="XMLID_605_"/><path d="M256,188c22.4,0,40.7-18.3,40.7-40.7c0-22.4-18.3-40.7-40.7-40.7s-40.7,18.3-40.7,40.7   C215.3,169.8,233.6,188,256,188z M256,116.4c17,0,30.9,13.9,30.9,30.9c0,17-13.9,30.9-30.9,30.9s-30.9-13.9-30.9-30.9   C225.1,130.3,239,116.4,256,116.4z" id="XMLID_608_"/><path d="M168.5,284.1h175c7.2,0,13-6.4,13-14.4V103c0-7.9-5.9-14.4-13-14.4h-175c-7.2,0-13,6.4-13,14.4v166.8   C155.4,277.7,161.3,284.1,168.5,284.1z M165.2,103c0-2.5,1.5-4.6,3.2-4.6h175c1.8,0,3.2,2.1,3.2,4.6v166.8c0,2.5-1.5,4.6-3.2,4.6   h-175c-1.8,0-3.2-2.1-3.2-4.6V103z" id="XMLID_737_"/><path d="M352,329.8c0-2.7-2.2-4.9-4.9-4.9H164.9c-2.7,0-4.9,2.2-4.9,4.9s2.2,4.9,4.9,4.9h182.2   C349.8,334.7,352,332.5,352,329.8z" id="XMLID_739_"/><path d="M361.3,389.4H150.7c-2.7,0-4.9,2.2-4.9,4.9c0,2.7,2.2,4.9,4.9,4.9h210.6c2.7,0,4.9-2.2,4.9-4.9   C366.2,391.5,364,389.4,361.3,389.4z" id="XMLID_740_"/></g></svg>
