<?xml version="1.0" ?><!DOCTYPE svg  PUBLIC '-//W3C//DTD SVG 1.1//EN'  'http://www.w3.org/Graphics/SVG/1.1/DTD/svg11.dtd'><svg enable-background="new 0 0 96 96" height="96px" id="Layer_1" version="1.1" viewBox="0 0 96 96" width="96px" xml:space="preserve" xmlns="http://www.w3.org/2000/svg" xmlns:xlink="http://www.w3.org/1999/xlink"><g><rect height="6" width="42" x="27" y="75"/><rect height="6" width="42" x="27" y="63"/><path d="M66,43c0-4.881-2.934-9.083-7.127-10.956C59.589,30.508,60,28.803,60,27c0-6.617-5.383-12-12-12s-12,5.383-12,12   c0,1.803,0.411,3.508,1.127,5.044C32.934,33.917,30,38.119,30,43v14h36V43z M48,21c3.309,0,6,2.691,6,6s-2.691,6-6,6s-6-2.691-6-6   S44.691,21,48,21z M60,51H36v-8c0-3.115,2.387-5.683,5.429-5.971C43.318,38.271,45.574,39,48,39s4.682-0.729,6.571-1.971   C57.613,37.317,60,39.885,60,43V51z"/><path d="M79.5,3h-63c-1.657,0-3,1.343-3,3v84c0,1.657,1.343,3,3,3h63c1.657,0,3-1.343,3-3V6C82.5,4.343,81.157,3,79.5,3z M76.5,87   h-57V9h57V87z"/></g></svg>