<?xml version="1.0" ?><svg enable-background="new 0 0 64 64" height="64px" version="1.1" viewBox="0 0 64 64" width="64px" xml:space="preserve" xmlns="http://www.w3.org/2000/svg" xmlns:xlink="http://www.w3.org/1999/xlink"><g id="Layer_1"><g><circle cx="32" cy="32" fill="#C75C5C" r="32"/></g><g opacity="0.2"><path d="M32,56c0,0-18-6.811-18-21.495V20.883c0,0,5.81-6.883,18-6.883V56z" fill="#231F20"/></g><g opacity="0.2"><path d="M32,56c0,0,18-6.811,18-21.495V20.883c0,0-5.81-6.883-18-6.883V56z" fill="#231F20"/></g><g><path d="M32,54c0,0-18-6.811-18-21.495V18.883c0,0,5.81-6.883,18-6.883V54z" fill="#F5CF87"/></g><g><path d="M32,54c0,0,18-6.811,18-21.495V18.883c0,0-5.81-6.883-18-6.883V54z" fill="#E0995E"/></g></g><g id="Layer_2"/></svg>
